HIERARCHY
ROOT Hips
{
	OFFSET 0.00000 0.00000 0.00000
	CHANNELS 6 Xposition Yposition Zposition Zrotation Yrotation Xrotation 
	JOINT LHipJoint
	{
		OFFSET 0 0 0
		CHANNELS 3 Zrotation Yrotation Xrotation
		JOINT LeftHip
		{
			OFFSET 1.48831 -1.59570 0.95625
			CHANNELS 3 Zrotation Yrotation Xrotation
			JOINT LeftKnee
			{
				OFFSET 2.20856 -6.06797 0.00000
				CHANNELS 3 Zrotation Yrotation Xrotation
				JOINT LeftAnkle
				{
					OFFSET 2.62924 -7.22379 0.00000
					CHANNELS 3 Zrotation Yrotation Xrotation
					JOINT LeftToe
					{
						OFFSET 0.16802 -0.46163 2.41673
						CHANNELS 3 Zrotation Yrotation Xrotation
						End Site
						{
							OFFSET 0.00000 -0.00000 1.23760
						}
					}
				}
			}
		}
	}
	JOINT RHipJoint
	{
		OFFSET 0 0 0
		CHANNELS 3 Zrotation Yrotation Xrotation
		JOINT RightHip
		{
			OFFSET -1.56796 -1.59570 0.95625
			CHANNELS 3 Zrotation Yrotation Xrotation
			JOINT RightKnee
			{
				OFFSET -2.29239 -6.29829 0.00000
				CHANNELS 3 Zrotation Yrotation Xrotation
				JOINT RightAnkle
				{
					OFFSET -2.66963 -7.33475 0.00000
					CHANNELS 3 Zrotation Yrotation Xrotation
					JOINT RightToe
					{
						OFFSET -0.18185 -0.49964 2.34359
						CHANNELS 3 Zrotation Yrotation Xrotation
						End Site
						{
							OFFSET -0.00000 -0.00000 1.20477
						}
					}
				}
			}
		}
	}
	JOINT lowerback
	{
		OFFSET 0 0 0
		CHANNELS 3 Zrotation Yrotation Xrotation
		JOINT Chest
		{
			OFFSET 0.03505 2.15832 -0.34324
			CHANNELS 3 Zrotation Yrotation Xrotation
			JOINT Chest2
			{
				OFFSET -0.01089 2.17963 0.04689
				CHANNELS 3 Zrotation Yrotation Xrotation
				JOINT lowerneck
				{
					OFFSET 0 0 0
					CHANNELS 3 Zrotation Yrotation Xrotation
					JOINT Neck
					{
						OFFSET 0.04686 1.69404 0.22159
						CHANNELS 3 Zrotation Yrotation Xrotation
						JOINT Head
						{
							OFFSET 0.00265 1.69305 -0.01513
							CHANNELS 3 Zrotation Yrotation Xrotation
							End Site
							{
								OFFSET -0.00415 1.80215 -0.03034
							}
						}
					}
				}
				JOINT LeftCollar
				{
					OFFSET 0 0 0
					CHANNELS 3 Zrotation Yrotation Xrotation
					JOINT LeftShoulder
					{
						OFFSET 3.67184 1.11724 -0.19002
CHANNELS 3 Zrotation Xrotation Yrotation
						JOINT LeftElbow
						{
OFFSET 0 -5.177140 -0.000000
CHANNELS 3 Zrotation Xrotation Yrotation
							JOINT LeftWrist
							{
OFFSET 0 -3.436790 -0.000000
CHANNELS 3 Zrotation Xrotation Yrotation
								JOINT lhand
								{
									OFFSET 0 0 0
CHANNELS 3 Zrotation Xrotation Yrotation
									JOINT LFingers
									{
OFFSET 0 -0.573120 -0.000000
CHANNELS 3 Zrotation Xrotation Yrotation
										End Site
										{
OFFSET 0 -0.462060 -0.000000
										}
									}
								}
								JOINT LThumb
								{
OFFSET 0 0.000000 0.000000
CHANNELS 3 Zrotation Xrotation Yrotation
									End Site
									{
OFFSET 0 -0.469120 0.469120
									}
								}
							}
						}
					}
				}
				JOINT RightCollar
				{
					OFFSET 0 0 0
					CHANNELS 3 Zrotation Yrotation Xrotation
					JOINT RightShoulder
					{
						OFFSET -3.59596 0.95831 -0.26050
CHANNELS 3 Zrotation Xrotation Yrotation
						JOINT RightElbow
						{
OFFSET 0 -5.239080 -0.000000
CHANNELS 3 Zrotation Xrotation Yrotation
							JOINT RightWrist
							{
OFFSET 0 -3.464850 -0.000000
CHANNELS 3 Zrotation Xrotation Yrotation
								JOINT rhand
								{
									OFFSET 0 0 0
CHANNELS 3 Zrotation Xrotation Yrotation
									JOINT RFingers
									{
OFFSET 0 -0.608750 -0.000000
CHANNELS 3 Zrotation Xrotation Yrotation
										End Site
										{
OFFSET 0 -0.490790 -0.000000
										}
									}
								}
								JOINT RThumb
								{
OFFSET 0 0.000000 0.000000
CHANNELS 3 Zrotation Xrotation Yrotation
									End Site
									{
OFFSET 0 -0.498290 0.498290
									}
								}
							}
						}
					}
				}
			}
		}
	}
}
MOTION
Frames: 8
Frame Time: 0.008333333333333333
5.577200 14.799400 -17.411200 -5.261800 -34.381000 6.781400 0.000000 0.000000 0.000000 -13.247500 8.029100 -42.955000 11.242700 18.051800 63.567200 2.321300 -6.751100 -27.508900 0.223100 -3.040200 -8.390800 0.000000 0.000000 0.000000 21.349900 2.558700 -42.481800 -12.274200 -18.504200 66.855400 -2.638900 -1.162500 -31.185500 -0.080200 1.827000 -5.027800 -0.042300 -0.919000 26.517700 0.755600 -1.259200 4.775100 1.301000 -0.641100 -9.375100 3.024100 0.348500 -10.294300 0.526700 -0.383800 21.871000 -0.381000 0.057900 8.497500 0.000000 -0.000000 0.000000 2.541700 13.713000 -35.571800 153.078900 -38.103900 110.549600 -1.522900 -0.418900 -42.558100 0.000000 0.000000 0.000000 -7.125000 0.000000 0.000000 -50.391500 65.676800 28.207300 0.000000 -0.000000 0.000000 -6.916400 6.193300 39.627000 -146.366700 -43.811200 -106.141400 17.247300 6.924800 20.522600 0.000000 0.000000 0.000000 7.125000 0.000000 -0.000000 41.813900 46.012600 -1.272000
5.576900 14.799600 -17.416237 -5.257017 -34.287835 6.780989 0.000000 0.000000 0.000000 -13.234111 8.023192 -42.984586 11.235380 18.048363 63.543594 2.314300 -6.814660 -27.459797 0.225557 -3.056842 -8.437008 0.000000 0.000000 0.000000 21.372460 2.505457 -42.514278 -12.272946 -18.503623 66.851260 -2.633880 -1.314372 -31.209196 -0.090817 1.943764 -5.350274 -0.137725 -0.924004 26.468328 0.722368 -1.294799 4.770411 1.329729 -0.655289 -9.353134 3.047219 0.355398 -10.268726 0.498125 -0.366961 21.748175 -0.392457 0.063935 8.451202 0.000000 0.000000 0.000000 2.664558 13.721845 -35.775994 153.227499 -37.961438 110.641150 -1.518853 -0.425769 -42.442236 0.000000 0.000000 0.000000 -7.125000 0.000000 0.000000 -50.193330 65.603052 27.990484 0.000000 0.000000 0.000000 -6.903225 6.076976 39.610564 -146.381370 -43.800190 -106.151570 17.022102 7.060877 20.471134 0.000000 0.000000 0.000000 7.125000 0.000000 0.000000 41.607325 46.003386 -1.251494
5.577163 14.801137 -17.419146 -5.248412 -34.143911 6.759584 0.000000 0.000000 0.000000 -13.222396 7.835798 -42.916369 11.219611 18.040851 63.492658 2.313946 -6.751895 -27.463023 0.222563 -3.036911 -8.381552 0.000000 0.000000 0.000000 21.383511 2.431995 -42.498601 -12.262585 -18.499434 66.818664 -2.642143 -1.364148 -31.275504 -0.093906 1.976329 -5.440272 -0.236131 -0.946694 26.471904 0.688499 -1.353426 4.750265 1.368737 -0.679626 -9.375024 3.082984 0.368572 -10.267193 0.506590 -0.355649 21.698276 -0.394363 0.072525 8.434328 0.000000 0.000000 0.000000 2.730630 13.690932 -35.977361 153.192733 -37.994738 110.619758 -1.211372 -0.330909 -42.396423 0.000000 0.000000 0.000000 -7.125000 0.000000 0.000000 -49.837119 65.663972 27.813840 0.000000 0.000000 0.000000 -6.924633 6.021818 40.069247 -146.391783 -43.792313 -106.158784 17.119718 6.649969 20.404287 0.000000 0.000000 0.000000 7.125000 0.000000 0.000000 41.640645 45.936360 -1.169848
5.575231 14.803369 -17.420200 -5.307252 -34.068285 6.785634 0.000000 0.000000 0.000000 -13.158101 7.843232 -42.909024 11.209657 18.036163 63.460502 2.309388 -6.766332 -27.433407 0.230255 -3.088583 -8.525583 0.000000 0.000000 0.000000 21.452187 2.435598 -42.463906 -12.253382 -18.495726 66.789847 -2.649457 -1.369463 -31.320035 -0.089212 1.926772 -5.303311 -0.312532 -0.903042 26.464679 0.670926 -1.319234 4.731696 1.381799 -0.661030 -9.391880 3.109609 0.343736 -10.191951 0.528702 -0.396705 21.675271 -0.395495 0.056990 8.412345 0.000000 0.000000 0.000000 2.776276 13.669220 -36.198108 153.152189 -38.033648 110.594831 -1.168405 -0.207984 -42.370704 0.000000 0.000000 0.000000 -7.125000 0.000000 0.000000 -49.755082 65.659932 27.753579 0.000000 0.000000 0.000000 -6.921128 6.011266 40.598895 -146.398433 -43.787359 -106.163427 17.508115 5.611894 20.529696 0.000000 0.000000 0.000000 7.125000 0.000000 0.000000 42.019514 45.981488 -1.241964
5.574000 14.801826 -17.418934 -5.315440 -33.968132 6.801093 0.000000 0.000000 0.000000 -13.142028 7.800422 -42.936736 11.218704 18.040406 63.489761 2.308349 -6.855044 -27.419711 0.225102 -3.054239 -8.429679 0.000000 0.000000 0.000000 21.487553 2.370185 -42.486079 -12.254957 -18.496383 66.794681 -2.638628 -1.599994 -31.339651 -0.106387 2.103197 -5.790885 -0.417017 -0.884796 26.477166 0.649623 -1.326534 4.738172 1.420798 -0.661626 -9.388992 3.061013 0.338574 -10.225574 0.539560 -0.400683 21.768696 -0.384355 0.053257 8.450096 0.000000 0.000000 0.000000 2.814838 13.765676 -36.218443 153.294929 -37.896511 110.682657 -1.267440 -0.364442 -42.485474 0.000000 0.000000 0.000000 -7.125000 0.000000 0.000000 -50.037384 65.705200 27.995622 0.000000 0.000000 0.000000 -6.884444 5.928132 40.695158 -146.296847 -43.863613 -106.093070 17.513365 5.627270 20.502011 0.000000 0.000000 0.000000 7.125000 0.000000 0.000000 42.006001 45.958660 -1.212756
5.575843 14.795314 -17.418943 -5.347343 -33.840247 6.907076 0.000000 0.000000 0.000000 -13.126544 7.743347 -43.134114 11.257903 18.059030 63.616294 2.310471 -6.860407 -27.432323 0.235885 -3.125722 -8.629038 0.000000 0.000000 0.000000 21.528270 2.392964 -42.629926 -12.282674 -18.507630 66.881995 -2.626772 -1.925353 -31.390701 -0.130857 2.331541 -6.422895 -0.423942 -0.858985 26.440101 0.649753 -1.295171 4.764243 1.413024 -0.647257 -9.341272 3.021448 0.358230 -10.237782 0.509670 -0.358727 21.775925 -0.383430 0.067301 8.455003 0.000000 0.000000 0.000000 2.939855 13.751425 -36.195959 153.336277 -37.856565 110.708038 -1.683096 -0.544828 -42.559760 0.000000 0.000000 0.000000 -7.125000 0.000000 0.000000 -50.539251 65.630503 28.257755 0.000000 0.000000 0.000000 -7.020079 5.968208 40.415917 -146.293178 -43.866349 -106.090452 17.298429 5.736515 20.485898 0.000000 0.000000 0.000000 7.125000 0.000000 0.000000 41.830267 45.976254 -1.227282
5.576300 14.791951 -17.413788 -5.357618 -33.760636 6.960489 0.000000 0.000000 0.000000 -13.130420 7.806681 -43.259852 11.284289 18.071407 63.701303 2.305200 -7.083165 -27.381867 0.227679 -3.071426 -8.477597 0.000000 0.000000 0.000000 21.520036 2.313137 -42.734449 -12.307505 -18.517610 66.960164 -2.628612 -1.888864 -31.387666 -0.132261 2.343945 -6.457215 -0.401570 -0.866524 26.459270 0.611988 -1.302706 4.774921 1.360817 -0.651991 -9.340265 3.046266 0.364391 -10.242474 0.481150 -0.352113 21.882349 -0.396796 0.070345 8.491977 0.000000 0.000000 0.000000 2.974326 13.720998 -36.115036 153.276293 -37.914444 110.671158 -1.518293 -0.446593 -42.634846 0.000000 0.000000 0.000000 -7.125000 0.000000 0.000000 -50.516713 65.727506 28.349068 0.000000 0.000000 0.000000 -6.997823 6.006118 40.173205 -146.225187 -43.917160 -106.043366 17.447629 6.075932 20.449826 0.000000 0.000000 0.000000 7.125000 0.000000 0.000000 41.922317 45.926468 -1.168887
5.576320 14.786820 -17.412539 -5.376916 -33.756017 7.054787 0.000000 0.000000 0.000000 -13.115168 7.836388 -43.428113 11.319523 18.087921 63.814949 2.305341 -7.182288 -27.375287 0.225862 -3.059111 -8.443329 0.000000 0.000000 0.000000 21.521853 2.405840 -42.855789 -12.341384 -18.531302 67.066912 -2.635961 -1.882892 -31.428561 -0.129460 2.319277 -6.388911 -0.460952 -0.871276 26.470478 0.608777 -1.325978 4.794744 1.399163 -0.661759 -9.321874 3.066518 0.370363 -10.184495 0.488431 -0.346678 21.839101 -0.397116 0.074442 8.466799 0.000000 0.000000 0.000000 2.891736 13.777358 -36.041546 153.238913 -37.950407 110.648195 -1.688882 -0.589044 -42.545789 0.000000 0.000000 0.000000 -7.125000 0.000000 0.000000 -50.521078 65.619811 28.233491 0.000000 0.000000 0.000000 -6.933907 5.953925 40.205789 -146.311985 -43.852236 -106.103543 17.340582 6.198291 20.462405 0.000000 0.000000 0.000000 7.125000 0.000000 0.000000 41.847689 45.951526 -1.197187
